<svg width="48" height="48" viewBox="0 0 48 48" fill="none" xmlns="http://www.w3.org/2000/svg">
<path d="M24 4C16.268 4 10 10.268 10 18C10 28.5 24 44 24 44C24 44 38 28.5 38 18C38 10.268 31.732 4 24 4Z" fill="#329BFE"/>
<path d="M27 15V13C27 11.8954 26.1046 11 25 11H23C21.8954 11 21 11.8954 21 13V21H27V23C27 24.1046 26.1046 25 25 25H23C21.8954 25 21 24.1046 21 23V21" stroke="white" stroke-width="2" stroke-linecap="round" stroke-linejoin="round"/>
<path d="M21 17H27" stroke="white" stroke-width="2" stroke-linecap="round" stroke-linejoin="round"/>
</svg>